<svg version="1.1" id="Layer_1" xmlns="http://www.w3.org/2000/svg" xmlns:xlink="http://www.w3.org/1999/xlink" x="0px" y="0px"
	 width="100%" viewBox="0 0 282 121" enable-background="new 0 0 282 121" xml:space="preserve">
<path fill="#010007" opacity="1.000000" stroke="none" 
	d="
M190.000000,122.000000 
	C126.666687,122.000000 63.833370,122.000000 1.000042,122.000000 
	C1.000028,81.666695 1.000028,41.333393 1.000014,1.000069 
	C94.999939,1.000046 188.999878,1.000046 282.999878,1.000023 
	C282.999908,41.333263 282.999908,81.666527 282.999939,121.999893 
	C252.166672,122.000000 221.333328,122.000000 190.000000,122.000000 
M154.933151,105.446297 
	C182.558685,104.368858 210.187180,103.358963 237.806488,102.140457 
	C241.906479,101.959572 245.963074,100.794968 250.039734,100.085472 
	C250.003082,99.425026 249.966446,98.764580 249.929794,98.104134 
	C237.105927,92.433075 222.700378,93.703636 209.355972,89.695229 
	C211.062408,88.683510 212.738495,88.220543 214.440323,88.087845 
	C226.726105,87.129883 239.021088,86.287605 251.303040,85.284851 
	C253.730133,85.086693 256.113464,84.352631 259.963074,83.572746 
	C253.494202,80.898933 248.559341,78.859192 243.624481,76.819443 
	C243.720200,75.963669 243.815918,75.107895 243.911636,74.252121 
	C252.963318,72.581047 262.014984,70.909973 271.066681,69.238899 
	C271.077789,68.685631 271.088928,68.132355 271.100067,67.579086 
	C266.916168,66.574989 262.732300,65.570900 257.892883,64.409485 
	C259.871948,62.183784 261.435974,60.424854 263.961060,57.585140 
	C258.124939,56.489967 253.307510,55.585960 248.490112,54.681957 
	C248.554749,54.138157 248.619400,53.594357 248.684052,53.050556 
	C258.382294,52.080276 268.080566,51.110001 277.778809,50.139721 
	C277.764130,49.530029 277.749420,48.920338 277.734741,48.310646 
	C271.491425,43.433537 263.382172,44.948494 256.291901,42.972713 
	C256.225281,42.481018 256.158630,41.989326 256.092010,41.497635 
	C263.854370,39.889156 271.616730,38.280678 279.379089,36.672199 
	C279.337494,36.005169 279.295868,35.338135 279.254272,34.671104 
	C257.949951,28.012457 235.322586,28.468081 213.608490,23.560255 
	C230.935471,20.414274 248.600296,24.985455 265.870941,20.297653 
	C260.213196,18.216888 254.506165,16.845743 248.720032,16.048595 
	C206.035751,10.168061 163.074326,9.105230 120.081970,9.344655 
	C91.435913,9.504186 62.794567,10.507460 34.151070,11.131248 
	C15.261842,11.542611 5.996256,21.136707 6.318109,40.001198 
	C6.349280,41.828186 6.701476,43.650223 6.723535,45.476746 
	C6.825562,53.925056 6.480649,62.400303 7.055570,70.813988 
	C7.456439,76.680519 8.675733,82.581345 10.305616,88.243423 
	C11.482960,92.333405 13.635483,96.244331 15.914383,99.883644 
	C17.765619,102.839996 19.989162,106.017166 22.854551,107.797974 
	C30.908779,112.803604 40.059483,113.749847 49.361801,113.089241 
	C84.244804,110.612022 119.123650,108.076401 154.933151,105.446297 
z"/>
<path fill="#0111C4" opacity="1.000000" stroke="none" 
	d="
M154.468597,105.504486 
	C119.123650,108.076401 84.244804,110.612022 49.361801,113.089241 
	C40.059483,113.749847 30.908779,112.803604 22.854551,107.797974 
	C19.989162,106.017166 17.765619,102.839996 15.914383,99.883644 
	C13.635483,96.244331 11.482960,92.333405 10.305616,88.243423 
	C8.675733,82.581345 7.456439,76.680519 7.055570,70.813988 
	C6.480649,62.400303 6.825562,53.925056 6.723535,45.476746 
	C6.701476,43.650223 6.349280,41.828186 6.318109,40.001198 
	C5.996256,21.136707 15.261842,11.542611 34.151070,11.131248 
	C62.794567,10.507460 91.435913,9.504186 120.081970,9.344655 
	C163.074326,9.105230 206.035751,10.168061 248.720032,16.048595 
	C254.506165,16.845743 260.213196,18.216888 265.870941,20.297653 
	C248.600296,24.985455 230.935471,20.414274 213.608490,23.560255 
	C235.322586,28.468081 257.949951,28.012457 279.254272,34.671104 
	C279.295868,35.338135 279.337494,36.005169 279.379089,36.672199 
	C271.616730,38.280678 263.854370,39.889156 256.092010,41.497635 
	C256.158630,41.989326 256.225281,42.481018 256.291901,42.972713 
	C263.382172,44.948494 271.491425,43.433537 277.734741,48.310646 
	C277.749420,48.920338 277.764130,49.530029 277.778809,50.139721 
	C268.080566,51.110001 258.382294,52.080276 248.684052,53.050556 
	C248.619400,53.594357 248.554749,54.138157 248.490112,54.681957 
	C253.307510,55.585960 258.124939,56.489967 263.961060,57.585140 
	C261.435974,60.424854 259.871948,62.183784 257.892883,64.409485 
	C262.732300,65.570900 266.916168,66.574989 271.100067,67.579086 
	C271.088928,68.132355 271.077789,68.685631 271.066681,69.238899 
	C262.014984,70.909973 252.963318,72.581047 243.911636,74.252121 
	C243.815918,75.107895 243.720200,75.963669 243.624481,76.819443 
	C248.559341,78.859192 253.494202,80.898933 259.963074,83.572746 
	C256.113464,84.352631 253.730133,85.086693 251.303040,85.284851 
	C239.021088,86.287605 226.726105,87.129883 214.440323,88.087845 
	C212.738495,88.220543 211.062408,88.683510 209.355972,89.695229 
	C222.700378,93.703636 237.105927,92.433075 249.929794,98.104134 
	C249.966446,98.764580 250.003082,99.425026 250.039734,100.085472 
	C245.963074,100.794968 241.906479,101.959572 237.806488,102.140457 
	C210.187180,103.358963 182.558685,104.368858 154.468597,105.504486 
M70.306961,69.137268 
	C70.479736,70.133194 70.652512,71.129120 70.852806,72.751595 
	C70.888710,73.167953 70.924614,73.584305 71.279602,74.720291 
	C72.467117,75.143410 73.653389,75.927849 74.842354,75.931953 
	C83.622688,75.962280 92.403564,75.837074 101.721542,75.803375 
	C102.082176,75.811974 102.442802,75.820572 103.309448,75.659554 
	C103.581017,75.434387 103.852585,75.209213 104.467957,75.019211 
	C104.467957,75.019211 104.798241,75.120956 105.185829,75.757668 
	C106.064987,76.125061 106.952408,76.828674 107.821999,76.807274 
	C115.596634,76.615959 123.367767,76.111450 131.140701,76.096138 
	C134.847000,76.088829 136.300430,74.615715 136.558792,71.726959 
	C137.073654,74.897415 138.897217,76.143768 142.122101,76.001419 
	C146.433487,75.811096 150.760284,75.907295 155.079117,75.971146 
	C157.778564,76.011055 159.044327,74.832085 159.027298,72.101532 
	C158.983749,65.123672 158.956985,58.144714 159.037704,51.167515 
	C159.071884,48.212894 157.837921,46.970585 154.869080,47.016354 
	C148.753006,47.110638 142.633499,47.091930 136.517029,47.005478 
	C133.336899,46.960522 130.360001,46.954464 130.534821,51.995102 
	C130.095673,46.210674 126.398033,46.962040 122.097000,47.048183 
	C120.295868,47.026844 118.484398,46.872131 116.695656,47.010712 
	C112.390442,47.344257 108.095879,47.815174 103.502281,48.532654 
	C103.127785,48.699085 102.753288,48.865517 101.829163,49.297981 
	C101.571671,49.608524 101.314186,49.919067 101.080475,50.071064 
	C101.080475,50.071064 101.235367,50.112415 100.634285,50.160179 
	C98.255913,48.792103 95.955933,46.442703 93.484047,46.245235 
	C86.831963,45.713840 80.102112,45.989811 73.415291,46.253525 
	C72.500366,46.289604 71.654694,48.081402 70.836731,49.982925 
	C70.834999,56.282192 70.833267,62.581455 70.306961,69.137268 
z"/>
<path fill="#3815E4" opacity="1.000000" stroke="none" 
	d="
M123.041428,47.118458 
	C126.398033,46.962040 130.095673,46.210674 130.534821,51.995102 
	C130.360001,46.954464 133.336899,46.960522 136.517029,47.005478 
	C142.633499,47.091930 148.753006,47.110638 154.869080,47.016354 
	C157.837921,46.970585 159.071884,48.212894 159.037704,51.167515 
	C158.956985,58.144714 158.983749,65.123672 159.027298,72.101532 
	C159.044327,74.832085 157.778564,76.011055 155.079117,75.971146 
	C150.760284,75.907295 146.433487,75.811096 142.122101,76.001419 
	C138.897217,76.143768 137.073654,74.897415 135.988190,71.382912 
	C134.912415,71.010757 134.407242,70.982651 133.973145,70.597885 
	C135.464584,70.168045 137.263245,69.530434 138.209518,70.164635 
	C139.391342,70.956718 139.871582,72.795601 140.654724,74.182556 
	C141.311691,73.995682 141.968658,73.808807 142.625626,73.621933 
	C141.499695,65.503677 140.373764,57.385422 139.248581,49.272484 
	C134.632751,48.652943 131.165375,48.627884 132.086563,54.465012 
	C132.207382,55.230686 131.331223,56.153706 130.629822,57.103966 
	C129.465027,58.465546 128.587250,59.727005 127.582108,60.550152 
	C127.444931,56.781315 127.435127,53.450790 127.538834,49.959404 
	C127.403519,49.574062 127.154694,49.349579 126.535751,49.072861 
	C125.180656,49.119488 124.195686,49.218349 123.173492,48.950813 
	C123.104660,48.095757 123.073044,47.607109 123.041428,47.118458 
M153.153763,49.729446 
	C153.028290,51.707958 152.902802,53.686474 152.777328,55.664986 
	C152.456741,55.695366 152.136139,55.725750 151.815552,55.756134 
	C150.979828,53.559265 150.144104,51.362396 149.326691,49.213669 
	C147.865479,49.213669 146.593277,49.213669 144.890381,49.213669 
	C144.890381,56.665447 144.825760,63.939457 144.968582,71.209396 
	C144.987381,72.165390 146.067215,73.100540 146.655624,74.045349 
	C147.165527,73.893501 147.675430,73.741661 148.185333,73.589821 
	C148.185333,69.475647 148.185333,65.361481 148.185333,61.247311 
	C148.684021,61.176582 149.182693,61.105854 149.681381,61.035126 
	C150.136124,62.669270 150.575470,64.307899 151.049637,65.936386 
	C151.604996,67.843727 151.918045,69.893417 152.859482,71.591209 
	C153.482697,72.715179 155.025833,73.329063 157.122696,74.890152 
	C157.122696,66.037605 157.027130,58.918083 157.171448,51.803425 
	C157.226395,49.094742 155.932343,48.760288 153.153763,49.729446 
z"/>
<path fill="#E3D6FE" opacity="1.000000" stroke="none" 
	d="
M102.378799,49.031948 
	C102.753288,48.865517 103.127785,48.699085 104.080521,48.459309 
	C110.568291,47.806385 112.117386,49.009148 112.830421,56.386761 
	C110.288132,54.473206 108.718857,53.292034 107.154503,52.114563 
	C104.742859,55.129890 104.909836,56.034481 108.673080,59.980915 
	C113.825897,65.384575 114.238144,68.222221 110.318375,73.894714 
	C108.230080,74.320366 106.514160,74.720657 104.798241,75.120956 
	C104.798241,75.120956 104.467957,75.019211 104.206955,74.721901 
	C103.676666,74.160492 103.407387,73.896393 103.006866,73.320694 
	C102.592651,70.731293 102.309692,68.453476 102.417564,66.263000 
	C105.465096,66.424217 107.298927,64.676888 105.080513,62.973526 
	C100.387589,59.370178 101.228622,54.759743 101.235367,50.112415 
	C101.235367,50.112415 101.080475,50.071064 101.382523,50.076534 
	C101.915970,49.731987 102.147385,49.381969 102.378799,49.031948 
z"/>
<path fill="#2209DD" opacity="1.000000" stroke="none" 
	d="
M100.934830,50.136299 
	C101.228622,54.759743 100.387589,59.370178 105.080513,62.973526 
	C107.298927,64.676888 105.465096,66.424217 102.200539,65.993492 
	C100.430878,63.759804 99.269073,61.882957 97.982498,59.620289 
	C97.136505,55.905239 96.415298,52.576012 95.690849,49.231827 
	C93.713326,49.231827 91.954330,49.231827 90.205643,49.231827 
	C89.117104,54.337025 88.083038,59.186775 87.038269,63.605331 
	C86.312836,58.462463 85.598091,53.750782 84.644348,49.026596 
	C84.405342,49.014088 83.933693,49.095776 83.518753,49.032906 
	C82.150352,49.876999 80.559235,50.670345 80.373276,51.714054 
	C79.957947,54.045082 80.243454,56.500984 80.243454,59.477985 
	C72.743332,57.939564 78.242371,51.909531 75.178894,49.078964 
	C74.456276,49.078964 73.318504,49.078964 71.829979,49.060249 
	C71.245132,49.047802 71.011047,49.054062 70.776962,49.060318 
	C71.654694,48.081402 72.500366,46.289604 73.415291,46.253525 
	C80.102112,45.989811 86.831963,45.713840 93.484047,46.245235 
	C95.955933,46.442703 98.255913,48.792103 100.934830,50.136299 
z"/>
<path fill="#340EE8" opacity="1.000000" stroke="none" 
	d="
M110.690758,73.869370 
	C114.238144,68.222221 113.825897,65.384575 108.673080,59.980915 
	C104.909836,56.034481 104.742859,55.129890 107.154503,52.114563 
	C108.718857,53.292034 110.288132,54.473206 112.830421,56.386761 
	C112.117386,49.009148 110.568291,47.806385 104.227890,48.308319 
	C108.095879,47.815174 112.390442,47.344257 116.695656,47.010712 
	C118.484398,46.872131 120.295868,47.026844 122.569214,47.083321 
	C123.073044,47.607109 123.104660,48.095757 123.216064,49.391788 
	C123.295845,53.122604 123.295845,56.046040 123.295845,59.011478 
	C119.143929,58.651493 119.300964,58.642513 119.035538,54.000557 
	C118.924797,52.063763 120.830658,48.358295 115.763412,49.152306 
	C115.415665,49.440868 115.326431,49.735638 115.180450,50.462349 
	C115.076744,52.926025 115.029785,54.957767 114.681175,57.107922 
	C114.580513,58.822838 114.781502,60.419338 115.035461,62.455208 
	C115.045601,65.253960 115.002769,67.613342 114.649490,70.111961 
	C114.644913,71.456543 114.950783,72.661880 114.800659,73.893021 
	C113.126694,73.902344 111.908730,73.885857 110.690758,73.869370 
z"/>
<path fill="#2209DD" opacity="1.000000" stroke="none" 
	d="
M101.184265,75.760788 
	C92.403564,75.837074 83.622688,75.962280 74.842354,75.931953 
	C73.653389,75.927849 72.467117,75.143410 71.468437,74.322609 
	C71.887085,73.884438 72.116898,73.843941 72.750366,73.819199 
	C74.090935,72.929146 75.678589,72.123421 75.836311,71.097794 
	C76.227272,68.555519 75.964737,65.912743 75.964737,63.219666 
	C77.500427,63.219666 78.606705,63.219666 79.740585,63.219666 
	C78.202919,72.173416 78.698982,73.405556 84.187843,74.045639 
	C84.983177,74.042877 85.560043,73.946907 86.517944,73.859070 
	C88.017982,73.051361 89.277985,72.371780 90.226028,71.390747 
	C92.081398,69.470833 93.295204,68.870560 94.722153,71.961517 
	C95.116638,72.816025 97.637238,72.689018 99.420502,73.184021 
	C100.167198,74.157394 100.675735,74.959091 101.184265,75.760788 
z"/>
<path fill="#2209DD" opacity="1.000000" stroke="none" 
	d="
M110.318375,73.894714 
	C111.908730,73.885857 113.126694,73.902344 115.016037,73.866837 
	C115.687416,73.814842 116.089752,73.651939 116.498215,73.739639 
	C117.597153,73.168968 118.755898,72.590233 118.884109,71.836258 
	C119.184212,70.071556 118.819992,68.198860 119.070724,66.418625 
	C119.189316,65.576706 120.102119,64.846657 120.655090,64.065918 
	C121.193596,64.877792 121.944656,65.626175 122.211372,66.519226 
	C122.483116,67.429070 122.386497,68.494942 122.262917,69.468613 
	C121.805809,73.070114 123.665848,74.191338 127.116173,74.036102 
	C127.935883,74.028290 128.530060,73.923050 129.489471,73.837784 
	C131.203842,72.890022 132.552948,71.922279 133.902069,70.954544 
	C134.407242,70.982651 134.912415,71.010757 135.797562,71.084167 
	C136.300430,74.615715 134.847000,76.088829 131.140701,76.096138 
	C123.367767,76.111450 115.596634,76.615959 107.821999,76.807274 
	C106.952408,76.828674 106.064987,76.125061 104.992035,75.439316 
	C106.514160,74.720657 108.230080,74.320366 110.318375,73.894714 
z"/>
<path fill="#461BE5" opacity="1.000000" stroke="none" 
	d="
M101.452904,75.782082 
	C100.675735,74.959091 100.167198,74.157394 99.353073,72.738876 
	C98.734077,68.083405 98.420670,64.044762 98.107269,60.006111 
	C99.269073,61.882957 100.430878,63.759804 101.809708,65.906158 
	C102.309692,68.453476 102.592651,70.731293 102.954254,73.687447 
	C102.956406,74.853584 102.879921,75.341370 102.803436,75.829163 
	C102.442802,75.820572 102.082176,75.811974 101.452904,75.782082 
z"/>
<path fill="#4922EE" opacity="1.000000" stroke="none" 
	d="
M72.346710,73.803452 
	C72.116898,73.843941 71.887085,73.884438 71.308899,73.962799 
	C70.924614,73.584305 70.888710,73.167953 70.890411,72.033493 
	C70.895859,70.503838 70.863701,69.692276 70.831535,68.880722 
	C70.833267,62.581455 70.834999,56.282192 70.806847,49.521622 
	C71.011047,49.054062 71.245132,49.047802 71.791992,49.522934 
	C72.185410,57.937370 72.266060,65.870407 72.346710,73.803452 
z"/>
<path fill="#2209DD" opacity="1.000000" stroke="none" 
	d="
M70.569244,69.008995 
	C70.863701,69.692276 70.895859,70.503838 70.876648,71.720215 
	C70.652512,71.129120 70.479736,70.133194 70.569244,69.008995 
z"/>
<path fill="#2209DD" opacity="1.000000" stroke="none" 
	d="
M103.056442,75.744354 
	C102.879921,75.341370 102.956406,74.853584 103.085495,73.999039 
	C103.407387,73.896393 103.676666,74.160492 104.035049,74.704315 
	C103.852585,75.209213 103.581017,75.434387 103.056442,75.744354 
z"/>
<path fill="#2209DD" opacity="1.000000" stroke="none" 
	d="
M102.103981,49.164967 
	C102.147385,49.381969 101.915970,49.731987 101.370636,50.155807 
	C101.314186,49.919067 101.571671,49.608524 102.103981,49.164967 
z"/>
<path fill="#F8F1FF" opacity="1.000000" stroke="none" 
	d="
M153.481781,49.434250 
	C155.932343,48.760288 157.226395,49.094742 157.171448,51.803425 
	C157.027130,58.918083 157.122696,66.037605 157.122696,74.890152 
	C155.025833,73.329063 153.482697,72.715179 152.859482,71.591209 
	C151.918045,69.893417 151.604996,67.843727 151.049637,65.936386 
	C150.575470,64.307899 150.136124,62.669270 149.681381,61.035126 
	C149.182693,61.105854 148.684021,61.176582 148.185333,61.247311 
	C148.185333,65.361481 148.185333,69.475647 148.185333,73.589821 
	C147.675430,73.741661 147.165527,73.893501 146.655624,74.045349 
	C146.067215,73.100540 144.987381,72.165390 144.968582,71.209396 
	C144.825760,63.939457 144.890381,56.665447 144.890381,49.213669 
	C146.593277,49.213669 147.865479,49.213669 149.326691,49.213669 
	C150.144104,51.362396 150.979828,53.559265 151.815552,55.756134 
	C152.136139,55.725750 152.456741,55.695366 152.777328,55.664986 
	C152.902802,53.686474 153.028290,51.707958 153.481781,49.434250 
z"/>
<path fill="#F3EBFF" opacity="1.000000" stroke="none" 
	d="
M133.973145,70.597885 
	C132.552948,71.922279 131.203842,72.890022 129.452393,73.412796 
	C129.672333,67.646500 130.294571,62.325172 130.916840,57.003845 
	C131.331223,56.153706 132.207382,55.230686 132.086563,54.465012 
	C131.165375,48.627884 134.632751,48.652943 139.248581,49.272484 
	C140.373764,57.385422 141.499695,65.503677 142.625626,73.621933 
	C141.968658,73.808807 141.311691,73.995682 140.654724,74.182556 
	C139.871582,72.795601 139.391342,70.956718 138.209518,70.164635 
	C137.263245,69.530434 135.464584,70.168045 133.973145,70.597885 
z"/>
<path fill="#EEE5FF" opacity="1.000000" stroke="none" 
	d="
M126.890633,73.938667 
	C123.665848,74.191338 121.805809,73.070114 122.262917,69.468613 
	C122.386497,68.494942 122.483116,67.429070 122.211372,66.519226 
	C121.944656,65.626175 121.193596,64.877792 120.655090,64.065918 
	C120.102119,64.846657 119.189316,65.576706 119.070724,66.418625 
	C118.819992,68.198860 119.184212,70.071556 118.884109,71.836258 
	C118.755898,72.590233 117.597153,73.168968 116.480820,73.407455 
	C115.689957,71.982620 115.324951,70.977669 114.959938,69.972725 
	C115.002769,67.613342 115.045601,65.253960 115.250229,62.188011 
	C115.268967,59.984131 115.125900,58.486820 114.982834,56.989506 
	C115.029785,54.957767 115.076744,52.926025 115.341797,50.347160 
	C115.743362,49.607410 115.897369,49.393570 116.021927,49.158516 
	C120.830658,48.358295 118.924797,52.063763 119.035538,54.000557 
	C119.300964,58.642513 119.143929,58.651493 123.295845,59.011478 
	C123.295845,56.046040 123.295845,53.122604 123.253281,49.758194 
	C124.195686,49.218349 125.180656,49.119488 126.641647,49.334000 
	C127.220222,49.805004 127.322777,49.962635 127.425323,50.120266 
	C127.435127,53.450790 127.444931,56.781315 127.462494,60.986336 
	C127.456421,64.853806 127.442596,67.846779 127.336555,71.168472 
	C127.307465,71.715858 127.370590,71.934532 127.375443,72.459930 
	C127.174995,73.157318 127.032814,73.547997 126.890633,73.938667 
z"/>
<path fill="#340EE8" opacity="1.000000" stroke="none" 
	d="
M127.116173,74.036102 
	C127.032814,73.547997 127.174995,73.157318 127.521973,72.325912 
	C127.627434,71.536705 127.528107,71.188225 127.428772,70.839752 
	C127.442596,67.846779 127.456421,64.853806 127.589859,61.424644 
	C128.587250,59.727005 129.465027,58.465546 130.629822,57.103966 
	C130.294571,62.325172 129.672333,67.646500 129.087158,73.392822 
	C128.530060,73.923050 127.935883,74.028290 127.116173,74.036102 
z"/>
<path fill="#876BE8" opacity="1.000000" stroke="none" 
	d="
M127.538834,49.959404 
	C127.322777,49.962635 127.220222,49.805004 127.011765,49.386238 
	C127.154694,49.349579 127.403519,49.574062 127.538834,49.959404 
z"/>
<path fill="#F2E9FE" opacity="1.000000" stroke="none" 
	d="
M97.982498,59.620289 
	C98.420670,64.044762 98.734077,68.083405 99.114899,72.567200 
	C97.637238,72.689018 95.116638,72.816025 94.722153,71.961517 
	C93.295204,68.870560 92.081398,69.470833 90.226028,71.390747 
	C89.277985,72.371780 88.017982,73.051361 86.471008,73.440323 
	C86.378334,70.021149 86.713646,67.028831 87.048965,64.036522 
	C88.083038,59.186775 89.117104,54.337025 90.205643,49.231827 
	C91.954330,49.231827 93.713326,49.231827 95.690849,49.231827 
	C96.415298,52.576012 97.136505,55.905239 97.982498,59.620289 
z"/>
<path fill="#E9DFFE" opacity="1.000000" stroke="none" 
	d="
M72.750366,73.819199 
	C72.266060,65.870407 72.185410,57.937370 72.142746,49.541649 
	C73.318504,49.078964 74.456276,49.078964 75.178894,49.078964 
	C78.242371,51.909531 72.743332,57.939564 80.243454,59.477985 
	C80.243454,56.500984 79.957947,54.045082 80.373276,51.714054 
	C80.559235,50.670345 82.150352,49.876999 83.634171,49.330555 
	C84.284225,49.867081 84.403900,50.043091 84.532387,50.636276 
	C84.350586,58.686451 84.159981,66.319450 83.969368,73.952446 
	C78.698982,73.405556 78.202919,72.173416 79.740585,63.219666 
	C78.606705,63.219666 77.500427,63.219666 75.964737,63.219666 
	C75.964737,65.912743 76.227272,68.555519 75.836311,71.097794 
	C75.678589,72.123421 74.090935,72.929146 72.750366,73.819199 
z"/>
<path fill="#3202F1" opacity="1.000000" stroke="none" 
	d="
M84.187843,74.045639 
	C84.159981,66.319450 84.350586,58.686451 84.675766,50.474403 
	C84.907204,49.616119 84.931534,49.330704 84.883347,49.039104 
	C85.598091,53.750782 86.312836,58.462463 87.038269,63.605331 
	C86.713646,67.028831 86.378334,70.021149 86.089966,73.432205 
	C85.560043,73.946907 84.983177,74.042877 84.187843,74.045639 
z"/>
<path fill="#9276F2" opacity="1.000000" stroke="none" 
	d="
M84.644348,49.026596 
	C84.931534,49.330704 84.907204,49.616119 84.666962,50.057224 
	C84.403900,50.043091 84.284225,49.867081 84.049118,49.393425 
	C83.933693,49.095776 84.405342,49.014088 84.644348,49.026596 
z"/>
<path fill="#D4BBFF" opacity="1.000000" stroke="none" 
	d="
M114.681175,57.107922 
	C115.125900,58.486820 115.268967,59.984131 115.197266,61.748642 
	C114.781502,60.419338 114.580513,58.822838 114.681175,57.107922 
z"/>
<path fill="#D4BBFF" opacity="1.000000" stroke="none" 
	d="
M114.649490,70.111961 
	C115.324951,70.977669 115.689957,71.982620 116.072357,73.319748 
	C116.089752,73.651939 115.687416,73.814842 115.472031,73.841034 
	C114.950783,72.661880 114.644913,71.456543 114.649490,70.111961 
z"/>
<path fill="#D4BBFF" opacity="1.000000" stroke="none" 
	d="
M115.763412,49.152306 
	C115.897369,49.393570 115.743362,49.607410 115.398544,49.915222 
	C115.326431,49.735638 115.415665,49.440868 115.763412,49.152306 
z"/>
<path fill="#876BE8" opacity="1.000000" stroke="none" 
	d="
M127.336555,71.168472 
	C127.528107,71.188225 127.627434,71.536705 127.580246,72.019196 
	C127.370590,71.934532 127.307465,71.715858 127.336555,71.168472 
z"/>
</svg>