<svg version="1.1" id="Layer_1" xmlns="http://www.w3.org/2000/svg" xmlns:xlink="http://www.w3.org/1999/xlink" x="0px" y="0px"
	 width="100%" viewBox="0 0 500 500" enable-background="new 0 0 500 500" xml:space="preserve">
<path fill="#FFFFFF" opacity="1.000000" stroke="none" 
	d="
M271.000000,501.000000 
	C182.000015,501.000000 93.500008,500.974609 5.000195,501.095825 
	C1.576093,501.100494 0.903036,500.423828 0.905301,497.000000 
	C1.013778,333.000092 1.013756,169.000122 0.905337,5.000245 
	C0.903074,1.576941 1.575799,0.903021 4.999878,0.905286 
	C168.999756,1.013775 332.999725,1.013761 496.999634,0.905353 
	C500.422668,0.903090 501.096985,1.575432 501.094727,4.999759 
	C500.986206,168.999634 500.986237,332.999603 501.094604,496.999512 
	C501.096893,500.422272 500.425598,501.102081 497.000275,501.096283 
	C421.833679,500.970154 346.666809,501.000000 271.000000,501.000000 
z"/>
<path fill="#6C6A67" opacity="1.000000" stroke="none" 
	d="
M268.214539,246.296585 
	C260.668640,239.197342 253.432999,232.114914 246.245148,224.984329 
	C241.606674,220.382782 242.212433,215.341568 247.760651,211.986298 
	C250.584885,210.278351 253.366562,208.472610 256.310211,206.995483 
	C261.644836,204.318588 267.027527,201.813812 264.557404,194.266327 
	C266.773651,193.876648 266.118042,195.475204 266.682343,196.051117 
	C267.958374,197.353317 269.347992,199.163147 271.050507,199.029831 
	C273.435608,198.843079 271.911530,196.339279 272.469635,194.957047 
	C272.792358,194.157715 273.193634,193.978882 274.078369,194.562057 
	C275.482391,197.865067 275.582123,201.394165 278.708740,203.819519 
	C283.172516,206.592117 287.429321,209.057159 291.630920,211.612991 
	C292.939484,212.409012 294.875702,212.768768 294.525696,215.305679 
	C294.492706,215.801361 294.561523,215.984253 294.576782,216.457336 
	C294.428864,216.922028 294.334503,217.096558 294.010559,217.462357 
	C293.441711,217.866013 293.093414,218.062500 292.470276,218.385712 
	C292.019928,218.609482 291.836761,218.693008 291.372986,218.886826 
	C290.151917,219.321930 289.219055,219.661728 288.232300,220.542526 
	C287.855225,220.885437 287.701080,221.020691 287.299194,221.341431 
	C286.700287,221.746613 286.341766,221.953537 285.699707,222.293030 
	C285.236206,222.528336 285.047791,222.616516 284.569885,222.819595 
	C283.098755,223.310898 281.954315,223.755936 280.830383,224.893890 
	C280.420288,225.244186 280.246460,225.375565 279.782928,225.664734 
	C277.416870,226.607254 275.317749,227.350571 273.446411,229.216736 
	C272.979797,229.559402 272.780396,229.680893 272.265503,229.955505 
	C269.571686,230.715866 270.349091,232.644577 270.286255,234.178635 
	C270.130981,237.969696 270.777985,241.797256 269.648621,245.892517 
	C269.544067,246.236740 269.288971,246.404953 269.196045,246.526215 
	C268.917084,246.529327 268.731049,246.411163 268.214539,246.296585 
z"/>
<path fill="#6C6A67" opacity="1.000000" stroke="none" 
	d="
M294.770569,216.728729 
	C299.365692,218.245148 296.343414,219.882599 295.076538,221.154343 
	C287.321747,228.938858 279.487610,236.644287 271.391235,244.478638 
	C269.793945,239.418289 268.201935,234.233551 272.643005,229.235977 
	C273.020966,228.987686 273.001892,228.999863 272.994202,229.008179 
	C274.865540,227.286362 277.256500,226.481155 279.765778,225.197586 
	C280.030731,224.984192 280.002472,225.002121 279.990112,225.013397 
	C281.236664,223.710815 282.925873,223.140106 284.772186,222.190002 
	C285.028992,221.982834 285.000488,222.000900 284.986755,222.010727 
	C285.419891,221.588135 286.023804,221.532562 286.805359,221.169266 
	C287.034851,220.985962 287.003876,221.003723 286.990723,221.015823 
	C288.234467,219.710327 289.924835,219.140656 291.772278,218.191269 
	C292.029633,217.984665 292.001038,218.001801 291.987701,218.011810 
	C292.419769,217.588058 293.023102,217.532578 293.804504,217.170883 
	C294.034119,216.988174 294.006104,217.001831 293.995789,217.013489 
	C294.147888,216.893066 294.310364,216.760986 294.770569,216.728729 
z"/>
<path fill="#CCCCCB" opacity="1.000000" stroke="none" 
	d="
M278.922546,203.649384 
	C274.383362,203.014648 273.680054,199.716309 274.178558,195.328583 
	C280.628601,194.944260 278.455688,199.815033 278.922546,203.649384 
z"/>
<path fill="#CCCCCB" opacity="1.000000" stroke="none" 
	d="
M272.604187,228.865204 
	C269.304016,233.497543 271.690216,238.798645 271.107056,244.148285 
	C270.764374,245.054764 270.426239,245.528320 269.816101,246.119308 
	C268.161194,240.955978 270.271301,235.496063 268.549225,230.115250 
	C268.016266,228.449966 271.056122,229.606674 272.604187,228.865204 
z"/>
<path fill="#CCCCCB" opacity="1.000000" stroke="none" 
	d="
M294.939575,216.508789 
	C294.895569,216.903915 294.722778,216.979294 294.267700,217.039917 
	C293.890076,216.795685 293.762054,216.572739 293.714325,216.333755 
	C293.693176,216.227798 293.834473,216.089386 294.162933,215.792084 
	C294.552826,215.808670 294.681793,215.998871 294.939575,216.508789 
z"/>
<path fill="#CCCCCB" opacity="1.000000" stroke="none" 
	d="
M267.958862,246.493042 
	C268.093872,246.333893 268.303772,246.367615 268.808380,246.524414 
	C268.746643,246.660294 268.390167,246.673096 267.958862,246.493042 
z"/>
<path fill="#CCCCCB" opacity="1.000000" stroke="none" 
	d="
M279.661987,224.855133 
	C278.510529,227.259262 275.915253,227.874237 273.345093,229.049103 
	C273.911194,225.855377 277.069153,225.977066 279.661987,224.855133 
z"/>
<path fill="#CCCCCB" opacity="1.000000" stroke="none" 
	d="
M253.981354,221.421036 
	C256.363312,221.484100 258.198456,222.817383 261.151550,224.928284 
	C257.552795,224.349411 255.514084,223.637497 253.981354,221.421036 
z"/>
<path fill="#CCCCCB" opacity="1.000000" stroke="none" 
	d="
M291.668640,217.849884 
	C291.148499,219.817612 289.217896,220.144073 287.324219,221.024521 
	C287.252899,218.396942 289.531464,218.384354 291.668640,217.849884 
z"/>
<path fill="#CCCCCB" opacity="1.000000" stroke="none" 
	d="
M265.730103,227.810135 
	C263.711395,228.231003 262.258209,227.253265 260.944733,225.399399 
	C263.092651,225.085907 264.307068,226.556961 265.730103,227.810135 
z"/>
<path fill="#CCCCCB" opacity="1.000000" stroke="none" 
	d="
M284.666077,221.877014 
	C284.204285,223.893570 282.261108,224.219345 280.327393,225.039276 
	C280.393219,222.575699 282.580353,222.482117 284.666077,221.877014 
z"/>
<path fill="#CCCCCB" opacity="1.000000" stroke="none" 
	d="
M253.877899,221.141846 
	C253.287323,221.040512 252.510529,221.251923 252.452744,220.339294 
	C252.884125,220.368607 253.315521,220.397903 253.901413,220.677856 
	C254.055923,220.928513 253.937241,221.070724 253.877899,221.141846 
z"/>
<path fill="#CCCCCB" opacity="1.000000" stroke="none" 
	d="
M286.699097,220.839264 
	C286.560333,221.364059 286.085815,221.742142 285.292175,222.070404 
	C284.948456,221.066940 285.631653,220.854355 286.699097,220.839264 
z"/>
<path fill="#CCCCCB" opacity="1.000000" stroke="none" 
	d="
M293.697876,216.812561 
	C293.558350,217.354385 293.082611,217.720596 292.290588,218.054321 
	C291.884491,217.006973 292.619171,216.818069 293.697876,216.812561 
z"/>
<path fill="#CCCCCB" opacity="1.000000" stroke="none" 
	d="
M266.027924,227.977859 
	C266.384033,228.131287 266.624603,228.398346 266.865204,228.665405 
	C266.595062,228.695328 266.324890,228.725250 265.868927,228.537842 
	C265.683105,228.320496 265.912415,228.091492 266.027924,227.977859 
z"/>
</svg>