<svg version="1.1" id="Layer_1" xmlns="http://www.w3.org/2000/svg" xmlns:xlink="http://www.w3.org/1999/xlink" x="0px" y="0px"
	 width="100%" viewBox="0 0 500 500" enable-background="new 0 0 500 500" xml:space="preserve">
<path fill="#000000" opacity="1.000000" stroke="none" 
	d="
M235.000000,501.000000 
	C158.000015,501.000000 81.499992,500.970703 5.000213,501.096191 
	C1.575902,501.101807 0.903036,500.423798 0.905301,497.000000 
	C1.013779,333.000092 1.013772,169.000122 0.905334,5.000237 
	C0.903070,1.576914 1.575824,0.903023 4.999887,0.905288 
	C168.999771,1.013774 332.999725,1.013761 496.999634,0.905353 
	C500.422668,0.903090 501.096985,1.575448 501.094727,4.999767 
	C500.986206,168.999649 500.986237,332.999603 501.094604,496.999512 
	C501.096893,500.422272 500.425415,501.100677 497.000305,501.095917 
	C409.833649,500.974213 322.666809,501.000000 235.000000,501.000000 
z"/>
<path fill="#FFFEFC" opacity="1.000000" stroke="none" 
	d="
M226.612946,188.137634 
	C228.800171,193.370636 232.962265,190.701141 235.964615,190.773651 
	C238.901779,190.844604 238.246185,187.731354 238.266663,185.653687 
	C238.300232,182.245422 238.275757,178.836563 238.275757,174.553375 
	C240.706924,176.794617 238.737366,179.412537 240.492111,180.933884 
	C241.763794,179.237015 240.722900,177.316437 241.409103,174.986298 
	C242.340561,177.521469 243.579407,178.980789 245.533371,176.384369 
	C245.842453,175.973679 245.720123,174.904129 246.653473,175.543442 
	C246.933655,175.735336 246.801239,176.481949 246.927612,176.955826 
	C247.204758,177.994934 247.966660,178.497650 248.325089,177.233383 
	C249.117935,174.436920 251.526062,176.012024 252.366959,176.214493 
	C254.132629,176.639725 255.417328,177.996506 255.368652,180.610245 
	C255.109467,194.521744 255.185089,208.439545 255.157944,222.355179 
	C255.156662,223.010376 255.280609,223.665802 255.794861,224.317032 
	C255.794861,209.391586 255.794861,194.466141 255.794861,179.540695 
	C256.123871,179.532272 256.452911,179.523849 256.781921,179.515427 
	C256.781921,189.201218 256.781921,198.887009 256.781921,208.572800 
	C257.149933,208.575592 257.517944,208.578400 257.885956,208.581192 
	C257.885956,205.538589 257.885956,202.496002 257.885956,199.453415 
	C260.627411,204.678894 260.736206,209.686890 257.287323,214.558304 
	C256.725525,215.351868 256.582611,217.146622 257.097260,217.886612 
	C261.347382,223.997437 258.623749,230.389053 257.590363,236.474457 
	C257.072266,239.525528 257.684662,242.679764 256.036499,245.637344 
	C256.036499,239.387177 256.036499,233.137009 256.036499,226.886841 
	C255.781525,226.886429 255.526535,226.886017 255.271561,226.885605 
	C255.271561,233.149582 255.271561,239.413574 255.271561,246.270920 
	C253.252060,243.001724 247.633194,248.297806 248.046585,241.885178 
	C246.402725,242.643875 247.026398,243.778564 246.907471,244.655441 
	C246.745224,245.851761 245.931000,245.713760 245.109940,245.779907 
	C243.724960,245.891525 244.022202,244.850616 244.019760,244.153152 
	C244.011063,241.660309 243.626221,239.038574 244.273911,236.713593 
	C244.822281,234.745224 243.965729,234.043091 242.824097,232.494583 
	C241.602478,237.194107 242.683823,241.476700 242.084686,245.932053 
	C240.333847,244.957642 241.907608,242.906906 240.483795,242.146118 
	C238.749542,242.782898 240.748856,245.102386 238.275085,245.931427 
	C238.275085,242.857574 238.048370,239.972229 238.327103,237.136566 
	C238.768661,232.644226 235.729630,230.331207 232.718063,228.416351 
	C230.471619,226.987991 227.742523,227.669296 227.086700,230.807327 
	C226.073288,235.656158 224.009964,240.346573 224.762558,245.411636 
	C221.165543,246.155365 220.414780,244.845749 220.466095,241.374023 
	C220.545868,235.981003 221.567810,230.528793 218.552567,225.174805 
	C216.965118,222.356079 217.619690,218.637970 219.754181,215.094666 
	C221.402191,212.358948 222.290268,208.039154 218.863312,204.982285 
	C216.316605,202.710602 219.523361,199.498276 216.971588,196.352722 
	C216.971588,213.291107 216.971588,229.422897 216.971588,245.554688 
	C216.668503,245.560196 216.365402,245.565704 216.062317,245.571228 
	C216.062317,241.414261 216.062317,237.257309 216.062317,233.100342 
	C213.896866,237.204849 215.203201,241.525452 214.258835,246.553513 
	C212.320358,242.418579 213.991806,238.589279 212.685425,234.405930 
	C210.958710,238.530075 212.427338,242.267441 210.600098,245.687790 
	C210.600098,240.245575 210.600098,234.803360 210.600098,229.361145 
	C210.103516,229.348877 209.606918,229.336609 209.110336,229.324356 
	C209.110336,234.778305 209.110336,240.232269 209.110336,245.686234 
	C208.708908,245.676102 208.307495,245.665985 207.906067,245.655869 
	C207.906067,237.939026 207.920883,230.222153 207.902786,222.505356 
	C207.871017,208.952881 207.808670,195.400467 207.783997,181.847992 
	C207.778748,178.969620 211.509247,175.054749 213.807541,175.424515 
	C215.083908,175.629852 214.617584,176.630554 214.625946,177.327682 
	C214.667313,180.774017 214.644791,184.221115 215.819992,187.735794 
	C215.819992,183.685837 215.819992,179.635880 215.819992,175.585938 
	C216.186523,175.589249 216.553070,175.592575 216.919601,175.595886 
	C216.919601,182.054199 216.919601,188.512512 216.919601,194.943726 
	C219.666092,195.057739 220.810135,194.272614 220.673630,191.623444 
	C220.451050,187.303421 220.495163,182.957642 220.711975,178.637039 
	C220.756012,177.759598 218.920975,175.471375 222.569000,175.690170 
	C225.379608,175.858749 225.745758,177.146240 225.938080,178.881271 
	C226.265991,181.839691 226.199921,184.841751 226.612946,188.137634 
z"/>
<path fill="#FFFEFC" opacity="1.000000" stroke="none" 
	d="
M207.214630,222.999786 
	C207.187576,230.911407 207.187576,238.323578 207.187576,245.735733 
	C206.904831,245.731583 206.622101,245.727417 206.339355,245.723267 
	C206.339355,223.248550 206.339355,200.773849 206.339355,178.299133 
	C206.640121,178.296509 206.940903,178.293884 207.241669,178.291245 
	C207.241669,193.027603 207.241669,207.763962 207.214630,222.999786 
z"/>
<path fill="#000000" opacity="1.000000" stroke="none" 
	d="
M208.966248,190.791412 
	C208.966293,187.262390 208.966293,184.207596 208.966293,181.152817 
	C210.861389,184.768555 210.910095,188.581146 210.164764,192.090347 
	C209.775024,193.925415 209.181442,191.972900 208.966248,190.791412 
z"/>
</svg>